<?xml version="1.0" encoding="UTF-8" standalone="no"?>
<!DOCTYPE svg PUBLIC "-//W3C//DTD SVG 1.1//EN"
 "http://www.w3.org/Graphics/SVG/1.1/DTD/svg11.dtd">
<!-- Generated by graphviz version 2.40.1 (20161225.0304)
 -->
<!-- Title: Graphical Class Hierarchy Pages: 1 -->
<svg width="476pt" height="1215pt"
 viewBox="0.00 0.00 476.00 1215.00" xmlns="http://www.w3.org/2000/svg" xmlns:xlink="http://www.w3.org/1999/xlink">
<g id="graph0" class="graph" transform="scale(1 1) rotate(0) translate(4 1211)">
<title>Graphical Class Hierarchy</title>
<polygon fill="#ffffff" stroke="transparent" points="-4,4 -4,-1211 472,-1211 472,4 -4,4"/>
<!-- Node165 -->
<g id="node1" class="node">
<title>Node165</title>
<polygon fill="#ffffff" stroke="#bfbfbf" points="0,-588.5 0,-618.5 216,-618.5 216,-588.5 0,-588.5"/>
<text text-anchor="start" x="8" y="-606.5" font-family="Helvetica,sans-Serif" font-size="10.00" fill="#000000">pymoduleconnector.moduleconnectorwrapper.</text>
<text text-anchor="middle" x="108" y="-595.5" font-family="Helvetica,sans-Serif" font-size="10.00" fill="#000000">_object</text>
</g>
<!-- Node0 -->
<g id="node2" class="node">
<title>Node0</title>
<g id="a_node2"><a xlink:href="classpymoduleconnector_1_1moduleconnectorwrapper_1_1_baseband_ap_data.xhtml" target="_top" xlink:title="pymoduleconnector.moduleconnectorwrapper.\lBasebandApData">
<polygon fill="#ffffff" stroke="#000000" points="252,-1176.5 252,-1206.5 468,-1206.5 468,-1176.5 252,-1176.5"/>
<text text-anchor="start" x="260" y="-1194.5" font-family="Helvetica,sans-Serif" font-size="10.00" fill="#000000">pymoduleconnector.moduleconnectorwrapper.</text>
<text text-anchor="middle" x="360" y="-1183.5" font-family="Helvetica,sans-Serif" font-size="10.00" fill="#000000">BasebandApData</text>
</a>
</g>
</g>
<!-- Node165&#45;&gt;Node0 -->
<g id="edge1" class="edge">
<title>Node165&#45;&gt;Node0</title>
<path fill="none" stroke="#191970" d="M110.9263,-628.5765C122.9859,-727.6215 171.9988,-1089.9652 252,-1167.5 255.4482,-1170.8418 259.2528,-1173.7599 263.3115,-1176.305"/>
<polygon fill="#191970" stroke="#191970" points="114.3929,-628.0882 109.7261,-618.5766 107.4428,-628.9224 114.3929,-628.0882"/>
</g>
<!-- Node167 -->
<g id="node3" class="node">
<title>Node167</title>
<g id="a_node3"><a xlink:href="classpymoduleconnector_1_1moduleconnectorwrapper_1_1_baseband_iq_data.xhtml" target="_top" xlink:title="pymoduleconnector.moduleconnectorwrapper.\lBasebandIqData">
<polygon fill="#ffffff" stroke="#000000" points="252,-1127.5 252,-1157.5 468,-1157.5 468,-1127.5 252,-1127.5"/>
<text text-anchor="start" x="260" y="-1145.5" font-family="Helvetica,sans-Serif" font-size="10.00" fill="#000000">pymoduleconnector.moduleconnectorwrapper.</text>
<text text-anchor="middle" x="360" y="-1134.5" font-family="Helvetica,sans-Serif" font-size="10.00" fill="#000000">BasebandIqData</text>
</a>
</g>
</g>
<!-- Node165&#45;&gt;Node167 -->
<g id="edge2" class="edge">
<title>Node165&#45;&gt;Node167</title>
<path fill="none" stroke="#191970" d="M111.561,-628.4929C125.3644,-721.8902 178.2581,-1048.635 252,-1118.5 255.4858,-1121.8026 259.3208,-1124.689 263.4034,-1127.209"/>
<polygon fill="#191970" stroke="#191970" points="115.0141,-627.9165 110.1064,-618.5269 108.0874,-628.9276 115.0141,-627.9165"/>
</g>
<!-- Node168 -->
<g id="node4" class="node">
<title>Node168</title>
<g id="a_node4"><a xlink:href="classpymoduleconnector_1_1moduleconnectorwrapper_1_1_data_record.xhtml" target="_top" xlink:title="Encapsulates data and information about one data record on disk. ">
<polygon fill="#ffffff" stroke="#000000" points="252,-1078.5 252,-1108.5 468,-1108.5 468,-1078.5 252,-1078.5"/>
<text text-anchor="start" x="260" y="-1096.5" font-family="Helvetica,sans-Serif" font-size="10.00" fill="#000000">pymoduleconnector.moduleconnectorwrapper.</text>
<text text-anchor="middle" x="360" y="-1085.5" font-family="Helvetica,sans-Serif" font-size="10.00" fill="#000000">DataRecord</text>
</a>
</g>
</g>
<!-- Node165&#45;&gt;Node168 -->
<g id="edge3" class="edge">
<title>Node165&#45;&gt;Node168</title>
<path fill="none" stroke="#191970" d="M112.3156,-628.3731C127.9787,-715.8242 184.4716,-1007.2335 252,-1069.5 255.6714,-1072.8853 259.711,-1075.8305 264.0062,-1078.3901"/>
<polygon fill="#191970" stroke="#191970" points="115.762,-627.7624 110.571,-618.5264 108.8694,-628.9837 115.762,-627.7624"/>
</g>
<!-- Node169 -->
<g id="node5" class="node">
<title>Node169</title>
<g id="a_node5"><a xlink:href="classpymoduleconnector_1_1moduleconnectorwrapper_1_1_data_type.xhtml" target="_top" xlink:title="Proxy of C++ XeThru::DataType class. ">
<polygon fill="#ffffff" stroke="#000000" points="252,-1029.5 252,-1059.5 468,-1059.5 468,-1029.5 252,-1029.5"/>
<text text-anchor="start" x="260" y="-1047.5" font-family="Helvetica,sans-Serif" font-size="10.00" fill="#000000">pymoduleconnector.moduleconnectorwrapper.</text>
<text text-anchor="middle" x="360" y="-1036.5" font-family="Helvetica,sans-Serif" font-size="10.00" fill="#000000">DataType</text>
</a>
</g>
</g>
<!-- Node165&#45;&gt;Node169 -->
<g id="edge4" class="edge">
<title>Node165&#45;&gt;Node169</title>
<path fill="none" stroke="#191970" d="M113.3245,-628.6539C131.1,-710.3085 190.7412,-965.8458 252,-1020.5 255.7981,-1023.8886 259.9671,-1026.8328 264.3895,-1029.3883"/>
<polygon fill="#191970" stroke="#191970" points="116.7163,-627.7786 111.1871,-618.741 109.8735,-629.2541 116.7163,-627.7786"/>
</g>
<!-- Node170 -->
<g id="node6" class="node">
<title>Node170</title>
<g id="a_node6"><a xlink:href="classpymoduleconnector_1_1moduleconnectorwrapper_1_1_detection_zone.xhtml" target="_top" xlink:title="Representation of the detection zone. ">
<polygon fill="#ffffff" stroke="#000000" points="252,-980.5 252,-1010.5 468,-1010.5 468,-980.5 252,-980.5"/>
<text text-anchor="start" x="260" y="-998.5" font-family="Helvetica,sans-Serif" font-size="10.00" fill="#000000">pymoduleconnector.moduleconnectorwrapper.</text>
<text text-anchor="middle" x="360" y="-987.5" font-family="Helvetica,sans-Serif" font-size="10.00" fill="#000000">DetectionZone</text>
</a>
</g>
</g>
<!-- Node165&#45;&gt;Node170 -->
<g id="edge5" class="edge">
<title>Node165&#45;&gt;Node170</title>
<path fill="none" stroke="#191970" d="M109.9545,-628.6538C116.5647,-695.5684 144.1504,-879.13 252,-971.5 256.0117,-974.9359 260.4079,-977.9106 265.0595,-980.4836"/>
<polygon fill="#191970" stroke="#191970" points="113.4313,-628.2385 109.0354,-618.5987 106.4603,-628.8758 113.4313,-628.2385"/>
</g>
<!-- Node171 -->
<g id="node7" class="node">
<title>Node171</title>
<g id="a_node7"><a xlink:href="classpymoduleconnector_1_1moduleconnectorwrapper_1_1_detection_zone_limits.xhtml" target="_top" xlink:title="Is an aggrgation of parameters used to represent the detection zone limits. ">
<polygon fill="#ffffff" stroke="#000000" points="252,-931.5 252,-961.5 468,-961.5 468,-931.5 252,-931.5"/>
<text text-anchor="start" x="260" y="-949.5" font-family="Helvetica,sans-Serif" font-size="10.00" fill="#000000">pymoduleconnector.moduleconnectorwrapper.</text>
<text text-anchor="middle" x="360" y="-938.5" font-family="Helvetica,sans-Serif" font-size="10.00" fill="#000000">DetectionZoneLimits</text>
</a>
</g>
</g>
<!-- Node165&#45;&gt;Node171 -->
<g id="edge6" class="edge">
<title>Node165&#45;&gt;Node171</title>
<path fill="none" stroke="#191970" d="M111.6739,-628.9649C121.8695,-689.8838 156.3582,-844.727 252,-922.5 256.1726,-925.8931 260.7245,-928.831 265.5227,-931.3728"/>
<polygon fill="#191970" stroke="#191970" points="115.0722,-628.0483 110.0436,-618.7228 108.1592,-629.1487 115.0722,-628.0483"/>
</g>
<!-- Node172 -->
<g id="node8" class="node">
<title>Node172</title>
<g id="a_node8"><a xlink:href="classpymoduleconnector_1_1moduleconnectorwrapper_1_1_files.xhtml" target="_top" xlink:title="pymoduleconnector.moduleconnectorwrapper.\lFiles">
<polygon fill="#ffffff" stroke="#000000" points="252,-882.5 252,-912.5 468,-912.5 468,-882.5 252,-882.5"/>
<text text-anchor="start" x="260" y="-900.5" font-family="Helvetica,sans-Serif" font-size="10.00" fill="#000000">pymoduleconnector.moduleconnectorwrapper.</text>
<text text-anchor="middle" x="360" y="-889.5" font-family="Helvetica,sans-Serif" font-size="10.00" fill="#000000">Files</text>
</a>
</g>
</g>
<!-- Node165&#45;&gt;Node172 -->
<g id="edge7" class="edge">
<title>Node165&#45;&gt;Node172</title>
<path fill="none" stroke="#191970" d="M113.7704,-628.3859C127.6025,-682.1879 167.929,-809.6215 252,-873.5 256.5116,-876.928 261.4175,-879.8846 266.567,-882.433"/>
<polygon fill="#191970" stroke="#191970" points="117.1591,-627.5096 111.3521,-618.6479 110.3655,-629.1967 117.1591,-627.5096"/>
</g>
<!-- Node173 -->
<g id="node9" class="node">
<title>Node173</title>
<g id="a_node9"><a xlink:href="classpymoduleconnector_1_1moduleconnectorwrapper_1_1_frame_area.xhtml" target="_top" xlink:title="pymoduleconnector.moduleconnectorwrapper.\lFrameArea">
<polygon fill="#ffffff" stroke="#000000" points="252,-833.5 252,-863.5 468,-863.5 468,-833.5 252,-833.5"/>
<text text-anchor="start" x="260" y="-851.5" font-family="Helvetica,sans-Serif" font-size="10.00" fill="#000000">pymoduleconnector.moduleconnectorwrapper.</text>
<text text-anchor="middle" x="360" y="-840.5" font-family="Helvetica,sans-Serif" font-size="10.00" fill="#000000">FrameArea</text>
</a>
</g>
</g>
<!-- Node165&#45;&gt;Node173 -->
<g id="edge8" class="edge">
<title>Node165&#45;&gt;Node173</title>
<path fill="none" stroke="#191970" d="M116.8254,-628.3185C134.6576,-674.6868 179.5635,-774.3041 252,-824.5 256.973,-827.9461 262.3574,-830.9075 267.9765,-833.4514"/>
<polygon fill="#191970" stroke="#191970" points="120.029,-626.8932 113.2438,-618.7562 113.4737,-629.3485 120.029,-626.8932"/>
</g>
<!-- Node174 -->
<g id="node10" class="node">
<title>Node174</title>
<g id="a_node10"><a xlink:href="classpymoduleconnector_1_1moduleconnectorwrapper_1_1_io_pin_control.xhtml" target="_top" xlink:title="Representation of io pin control configuration. ">
<polygon fill="#ffffff" stroke="#000000" points="252,-784.5 252,-814.5 468,-814.5 468,-784.5 252,-784.5"/>
<text text-anchor="start" x="260" y="-802.5" font-family="Helvetica,sans-Serif" font-size="10.00" fill="#000000">pymoduleconnector.moduleconnectorwrapper.</text>
<text text-anchor="middle" x="360" y="-791.5" font-family="Helvetica,sans-Serif" font-size="10.00" fill="#000000">IoPinControl</text>
</a>
</g>
</g>
<!-- Node165&#45;&gt;Node174 -->
<g id="edge9" class="edge">
<title>Node165&#45;&gt;Node174</title>
<path fill="none" stroke="#191970" d="M121.1004,-627.5988C142.9727,-665.4102 190.6438,-738.2004 252,-775.5 257.6623,-778.9422 263.76,-781.8926 270.0727,-784.4211"/>
<polygon fill="#191970" stroke="#191970" points="124.079,-625.7559 116.1028,-618.7823 117.9893,-629.2078 124.079,-625.7559"/>
</g>
<!-- Node175 -->
<g id="node11" class="node">
<title>Node175</title>
<g id="a_node11"><a xlink:href="classpymoduleconnector_1_1moduleconnectorwrapper_1_1_preferred_split_size.xhtml" target="_top" xlink:title="The PreferredSplitSize class allows specifying a split size. ">
<polygon fill="#ffffff" stroke="#000000" points="252,-735.5 252,-765.5 468,-765.5 468,-735.5 252,-735.5"/>
<text text-anchor="start" x="260" y="-753.5" font-family="Helvetica,sans-Serif" font-size="10.00" fill="#000000">pymoduleconnector.moduleconnectorwrapper.</text>
<text text-anchor="middle" x="360" y="-742.5" font-family="Helvetica,sans-Serif" font-size="10.00" fill="#000000">PreferredSplitSize</text>
</a>
</g>
</g>
<!-- Node165&#45;&gt;Node175 -->
<g id="edge10" class="edge">
<title>Node165&#45;&gt;Node175</title>
<path fill="none" stroke="#191970" d="M127.984,-626.3738C153.7773,-654.3969 201.3917,-701.2502 252,-726.5 258.9607,-729.9729 266.4221,-732.9476 274.0515,-735.4949"/>
<polygon fill="#191970" stroke="#191970" points="130.3087,-623.7268 121.0016,-618.6645 125.1204,-628.426 130.3087,-623.7268"/>
</g>
<!-- Node176 -->
<g id="node12" class="node">
<title>Node176</title>
<g id="a_node12"><a xlink:href="classpymoduleconnector_1_1moduleconnectorwrapper_1_1_pulse_doppler_byte_data.xhtml" target="_top" xlink:title="Represents one half or one range bin of pulse&#45;Doppler in byte format. ">
<polygon fill="#ffffff" stroke="#000000" points="252,-686.5 252,-716.5 468,-716.5 468,-686.5 252,-686.5"/>
<text text-anchor="start" x="260" y="-704.5" font-family="Helvetica,sans-Serif" font-size="10.00" fill="#000000">pymoduleconnector.moduleconnectorwrapper.</text>
<text text-anchor="middle" x="360" y="-693.5" font-family="Helvetica,sans-Serif" font-size="10.00" fill="#000000">PulseDopplerByteData</text>
</a>
</g>
</g>
<!-- Node165&#45;&gt;Node176 -->
<g id="edge11" class="edge">
<title>Node165&#45;&gt;Node176</title>
<path fill="none" stroke="#191970" d="M141.3452,-623.7564C169.8435,-640.2951 212.4024,-663.1944 252,-677.5 261.3033,-680.861 271.2342,-683.8411 281.1638,-686.4574"/>
<polygon fill="#191970" stroke="#191970" points="143.0042,-620.6718 132.6081,-618.6291 139.4612,-626.709 143.0042,-620.6718"/>
</g>
<!-- Node177 -->
<g id="node13" class="node">
<title>Node177</title>
<g id="a_node13"><a xlink:href="classpymoduleconnector_1_1moduleconnectorwrapper_1_1_pulse_doppler_float_data.xhtml" target="_top" xlink:title="Represents one half or one range bin of pulse&#45;Doppler in float format. ">
<polygon fill="#ffffff" stroke="#000000" points="252,-637.5 252,-667.5 468,-667.5 468,-637.5 252,-637.5"/>
<text text-anchor="start" x="260" y="-655.5" font-family="Helvetica,sans-Serif" font-size="10.00" fill="#000000">pymoduleconnector.moduleconnectorwrapper.</text>
<text text-anchor="middle" x="360" y="-644.5" font-family="Helvetica,sans-Serif" font-size="10.00" fill="#000000">PulseDopplerFloatData</text>
</a>
</g>
</g>
<!-- Node165&#45;&gt;Node177 -->
<g id="edge12" class="edge">
<title>Node165&#45;&gt;Node177</title>
<path fill="none" stroke="#191970" d="M195.2611,-620.4674C223.7393,-626.0049 255.1422,-632.111 282.8253,-637.4938"/>
<polygon fill="#191970" stroke="#191970" points="195.8051,-617.0077 185.3209,-618.5346 194.469,-623.879 195.8051,-617.0077"/>
</g>
<!-- Node178 -->
<g id="node14" class="node">
<title>Node178</title>
<g id="a_node14"><a xlink:href="classpymoduleconnector_1_1moduleconnectorwrapper_1_1_py_data_player.xhtml" target="_top" xlink:title="pymoduleconnector.moduleconnectorwrapper.\lPyDataPlayer">
<polygon fill="#ffffff" stroke="#000000" points="252,-588.5 252,-618.5 468,-618.5 468,-588.5 252,-588.5"/>
<text text-anchor="start" x="260" y="-606.5" font-family="Helvetica,sans-Serif" font-size="10.00" fill="#000000">pymoduleconnector.moduleconnectorwrapper.</text>
<text text-anchor="middle" x="360" y="-595.5" font-family="Helvetica,sans-Serif" font-size="10.00" fill="#000000">PyDataPlayer</text>
</a>
</g>
</g>
<!-- Node165&#45;&gt;Node178 -->
<g id="edge13" class="edge">
<title>Node165&#45;&gt;Node178</title>
<path fill="none" stroke="#191970" d="M226.5554,-603.5C234.9622,-603.5 243.4133,-603.5 251.7583,-603.5"/>
<polygon fill="#191970" stroke="#191970" points="226.3332,-600.0001 216.3332,-603.5 226.3331,-607.0001 226.3332,-600.0001"/>
</g>
<!-- Node179 -->
<g id="node15" class="node">
<title>Node179</title>
<g id="a_node15"><a xlink:href="classpymoduleconnector_1_1moduleconnectorwrapper_1_1_py_data_reader.xhtml" target="_top" xlink:title="The PyDataReader class allows reading of xethru data records from a recording. ">
<polygon fill="#ffffff" stroke="#000000" points="252,-539.5 252,-569.5 468,-569.5 468,-539.5 252,-539.5"/>
<text text-anchor="start" x="260" y="-557.5" font-family="Helvetica,sans-Serif" font-size="10.00" fill="#000000">pymoduleconnector.moduleconnectorwrapper.</text>
<text text-anchor="middle" x="360" y="-546.5" font-family="Helvetica,sans-Serif" font-size="10.00" fill="#000000">PyDataReader</text>
</a>
</g>
</g>
<!-- Node165&#45;&gt;Node179 -->
<g id="edge14" class="edge">
<title>Node165&#45;&gt;Node179</title>
<path fill="none" stroke="#191970" d="M195.2611,-586.5326C223.7393,-580.9951 255.1422,-574.889 282.8253,-569.5062"/>
<polygon fill="#191970" stroke="#191970" points="194.469,-583.121 185.3209,-588.4654 195.8051,-589.9923 194.469,-583.121"/>
</g>
<!-- Node180 -->
<g id="node16" class="node">
<title>Node180</title>
<g id="a_node16"><a xlink:href="classpymoduleconnector_1_1moduleconnectorwrapper_1_1_py_data_recorder.xhtml" target="_top" xlink:title="The DataRecorder class allows recording of xethru data types. ">
<polygon fill="#ffffff" stroke="#000000" points="252,-490.5 252,-520.5 468,-520.5 468,-490.5 252,-490.5"/>
<text text-anchor="start" x="260" y="-508.5" font-family="Helvetica,sans-Serif" font-size="10.00" fill="#000000">pymoduleconnector.moduleconnectorwrapper.</text>
<text text-anchor="middle" x="360" y="-497.5" font-family="Helvetica,sans-Serif" font-size="10.00" fill="#000000">PyDataRecorder</text>
</a>
</g>
</g>
<!-- Node165&#45;&gt;Node180 -->
<g id="edge15" class="edge">
<title>Node165&#45;&gt;Node180</title>
<path fill="none" stroke="#191970" d="M141.9321,-583.3358C170.4682,-567.1117 212.7749,-544.7442 252,-530.5 262.3113,-526.7556 273.385,-523.4392 284.3705,-520.5459"/>
<polygon fill="#191970" stroke="#191970" points="140.099,-580.3523 133.1723,-588.3693 143.5866,-586.4217 140.099,-580.3523"/>
</g>
<!-- Node181 -->
<g id="node17" class="node">
<title>Node181</title>
<g id="a_node17"><a xlink:href="classpymoduleconnector_1_1moduleconnectorwrapper_1_1_python_module_connector.xhtml" target="_top" xlink:title="This class is responsible for establishing contact with the XeThru module. ">
<polygon fill="#ffffff" stroke="#000000" points="252,-441.5 252,-471.5 468,-471.5 468,-441.5 252,-441.5"/>
<text text-anchor="start" x="260" y="-459.5" font-family="Helvetica,sans-Serif" font-size="10.00" fill="#000000">pymoduleconnector.moduleconnectorwrapper.</text>
<text text-anchor="middle" x="360" y="-448.5" font-family="Helvetica,sans-Serif" font-size="10.00" fill="#000000">PythonModuleConnector</text>
</a>
</g>
</g>
<!-- Node165&#45;&gt;Node181 -->
<g id="edge16" class="edge">
<title>Node165&#45;&gt;Node181</title>
<path fill="none" stroke="#191970" d="M128.4718,-580.4479C154.4352,-552.6836 201.8916,-506.6501 252,-481.5 259.7403,-477.615 268.0966,-474.3234 276.613,-471.5365"/>
<polygon fill="#191970" stroke="#191970" points="125.6271,-578.3704 121.4295,-588.0982 130.7772,-583.1113 125.6271,-578.3704"/>
</g>
<!-- Node182 -->
<g id="node18" class="node">
<title>Node182</title>
<g id="a_node18"><a xlink:href="classpymoduleconnector_1_1moduleconnectorwrapper_1_1_py_x2_m200.xhtml" target="_top" xlink:title="Interface to the Xethru X2M200 Application module. ">
<polygon fill="#ffffff" stroke="#000000" points="252,-392.5 252,-422.5 468,-422.5 468,-392.5 252,-392.5"/>
<text text-anchor="start" x="260" y="-410.5" font-family="Helvetica,sans-Serif" font-size="10.00" fill="#000000">pymoduleconnector.moduleconnectorwrapper.</text>
<text text-anchor="middle" x="360" y="-399.5" font-family="Helvetica,sans-Serif" font-size="10.00" fill="#000000">PyX2M200</text>
</a>
</g>
</g>
<!-- Node165&#45;&gt;Node182 -->
<g id="edge17" class="edge">
<title>Node165&#45;&gt;Node182</title>
<path fill="none" stroke="#191970" d="M121.1755,-579.6049C143.1518,-542.1012 190.9638,-469.8535 252,-432.5 258.32,-428.6322 265.1818,-425.3623 272.2794,-422.598"/>
<polygon fill="#191970" stroke="#191970" points="118.0989,-577.9342 116.1527,-588.3487 124.1687,-581.421 118.0989,-577.9342"/>
</g>
<!-- Node183 -->
<g id="node19" class="node">
<title>Node183</title>
<g id="a_node19"><a xlink:href="classpymoduleconnector_1_1moduleconnectorwrapper_1_1_py_x4_m200.xhtml" target="_top" xlink:title="C++ includes: PyX4M200.hpp. ">
<polygon fill="#ffffff" stroke="#000000" points="252,-343.5 252,-373.5 468,-373.5 468,-343.5 252,-343.5"/>
<text text-anchor="start" x="260" y="-361.5" font-family="Helvetica,sans-Serif" font-size="10.00" fill="#000000">pymoduleconnector.moduleconnectorwrapper.</text>
<text text-anchor="middle" x="360" y="-350.5" font-family="Helvetica,sans-Serif" font-size="10.00" fill="#000000">PyX4M200</text>
</a>
</g>
</g>
<!-- Node165&#45;&gt;Node183 -->
<g id="edge18" class="edge">
<title>Node165&#45;&gt;Node183</title>
<path fill="none" stroke="#191970" d="M116.8991,-578.8512C134.8556,-532.7894 179.9622,-433.7793 252,-383.5 257.5237,-379.6447 263.5557,-376.3763 269.8538,-373.6064"/>
<polygon fill="#191970" stroke="#191970" points="113.5702,-577.7584 113.2909,-588.3496 120.114,-580.2442 113.5702,-577.7584"/>
</g>
<!-- Node184 -->
<g id="node20" class="node">
<title>Node184</title>
<g id="a_node20"><a xlink:href="classpymoduleconnector_1_1moduleconnectorwrapper_1_1_py_x4_m300.xhtml" target="_top" xlink:title="C++ includes: PyX4M300.hpp. ">
<polygon fill="#ffffff" stroke="#000000" points="252,-294.5 252,-324.5 468,-324.5 468,-294.5 252,-294.5"/>
<text text-anchor="start" x="260" y="-312.5" font-family="Helvetica,sans-Serif" font-size="10.00" fill="#000000">pymoduleconnector.moduleconnectorwrapper.</text>
<text text-anchor="middle" x="360" y="-301.5" font-family="Helvetica,sans-Serif" font-size="10.00" fill="#000000">PyX4M300</text>
</a>
</g>
</g>
<!-- Node165&#45;&gt;Node184 -->
<g id="edge19" class="edge">
<title>Node165&#45;&gt;Node184</title>
<path fill="none" stroke="#191970" d="M113.9292,-578.4244C127.9839,-524.7351 168.5774,-398.3651 252,-334.5 257.043,-330.6393 262.5804,-327.3585 268.4011,-324.5723"/>
<polygon fill="#191970" stroke="#191970" points="110.4545,-577.889 111.3969,-588.4419 117.241,-579.6046 110.4545,-577.889"/>
</g>
<!-- Node185 -->
<g id="node21" class="node">
<title>Node185</title>
<g id="a_node21"><a xlink:href="classpymoduleconnector_1_1moduleconnectorwrapper_1_1_py_x_e_p.xhtml" target="_top" xlink:title="C++ includes: PyXEP.hpp. ">
<polygon fill="#ffffff" stroke="#000000" points="252,-245.5 252,-275.5 468,-275.5 468,-245.5 252,-245.5"/>
<text text-anchor="start" x="260" y="-263.5" font-family="Helvetica,sans-Serif" font-size="10.00" fill="#000000">pymoduleconnector.moduleconnectorwrapper.</text>
<text text-anchor="middle" x="360" y="-252.5" font-family="Helvetica,sans-Serif" font-size="10.00" fill="#000000">PyXEP</text>
</a>
</g>
</g>
<!-- Node165&#45;&gt;Node185 -->
<g id="edge20" class="edge">
<title>Node165&#45;&gt;Node185</title>
<path fill="none" stroke="#191970" d="M111.7444,-578.1672C122.096,-517.5549 156.9037,-363.4337 252,-285.5 256.689,-281.6573 261.8592,-278.3817 267.3212,-275.5919"/>
<polygon fill="#191970" stroke="#191970" points="108.2379,-577.925 110.0872,-588.3572 115.1471,-579.0487 108.2379,-577.925"/>
</g>
<!-- Node186 -->
<g id="node22" class="node">
<title>Node186</title>
<g id="a_node22"><a xlink:href="classpymoduleconnector_1_1moduleconnectorwrapper_1_1_recording_options.xhtml" target="_top" xlink:title="The RecordingOptions class allows specifying options for recording. ">
<polygon fill="#ffffff" stroke="#000000" points="252,-196.5 252,-226.5 468,-226.5 468,-196.5 252,-196.5"/>
<text text-anchor="start" x="260" y="-214.5" font-family="Helvetica,sans-Serif" font-size="10.00" fill="#000000">pymoduleconnector.moduleconnectorwrapper.</text>
<text text-anchor="middle" x="360" y="-203.5" font-family="Helvetica,sans-Serif" font-size="10.00" fill="#000000">RecordingOptions</text>
</a>
</g>
</g>
<!-- Node165&#45;&gt;Node186 -->
<g id="edge21" class="edge">
<title>Node165&#45;&gt;Node186</title>
<path fill="none" stroke="#191970" d="M110.0225,-578.4648C116.8014,-511.8567 144.7685,-329.0757 252,-236.5 256.4432,-232.6641 261.3607,-229.3873 266.5764,-226.5909"/>
<polygon fill="#191970" stroke="#191970" points="106.5331,-578.1886 109.0774,-588.4734 113.5021,-578.8467 106.5331,-578.1886"/>
</g>
<!-- Node187 -->
<g id="node23" class="node">
<title>Node187</title>
<g id="a_node23"><a xlink:href="classpymoduleconnector_1_1moduleconnectorwrapper_1_1_respiration_data.xhtml" target="_top" xlink:title="Represents the respiration status data coming from the module. ">
<polygon fill="#ffffff" stroke="#000000" points="252,-147.5 252,-177.5 468,-177.5 468,-147.5 252,-147.5"/>
<text text-anchor="start" x="260" y="-165.5" font-family="Helvetica,sans-Serif" font-size="10.00" fill="#000000">pymoduleconnector.moduleconnectorwrapper.</text>
<text text-anchor="middle" x="360" y="-154.5" font-family="Helvetica,sans-Serif" font-size="10.00" fill="#000000">RespirationData</text>
</a>
</g>
</g>
<!-- Node165&#45;&gt;Node187 -->
<g id="edge22" class="edge">
<title>Node165&#45;&gt;Node187</title>
<path fill="none" stroke="#191970" d="M113.3524,-578.427C131.2143,-497.0322 191.0929,-242.2832 252,-187.5 256.2928,-183.6389 261.0625,-180.3394 266.1386,-177.5229"/>
<polygon fill="#191970" stroke="#191970" points="109.9085,-577.793 111.2043,-588.3083 116.7488,-579.28 109.9085,-577.793"/>
</g>
<!-- Node188 -->
<g id="node24" class="node">
<title>Node188</title>
<g id="a_node24"><a xlink:href="classpymoduleconnector_1_1moduleconnectorwrapper_1_1_sleep_data.xhtml" target="_top" xlink:title="Represents the sleep status data coming from the module. ">
<polygon fill="#ffffff" stroke="#000000" points="252,-98.5 252,-128.5 468,-128.5 468,-98.5 252,-98.5"/>
<text text-anchor="start" x="260" y="-116.5" font-family="Helvetica,sans-Serif" font-size="10.00" fill="#000000">pymoduleconnector.moduleconnectorwrapper.</text>
<text text-anchor="middle" x="360" y="-105.5" font-family="Helvetica,sans-Serif" font-size="10.00" fill="#000000">SleepData</text>
</a>
</g>
</g>
<!-- Node165&#45;&gt;Node188 -->
<g id="edge23" class="edge">
<title>Node165&#45;&gt;Node188</title>
<path fill="none" stroke="#191970" d="M112.4479,-578.1187C128.3481,-490.2198 185.0077,-200.7823 252,-138.5 256.1581,-134.6342 260.792,-131.3274 265.7369,-128.5021"/>
<polygon fill="#191970" stroke="#191970" points="108.9898,-577.574 110.6732,-588.0343 115.8803,-578.8073 108.9898,-577.574"/>
</g>
<!-- Node189 -->
<g id="node25" class="node">
<title>Node189</title>
<g id="a_node25"><a xlink:href="classpymoduleconnector_1_1moduleconnectorwrapper_1_1_sleep_stage_data.xhtml" target="_top" xlink:title="pymoduleconnector.moduleconnectorwrapper.\lSleepStageData">
<polygon fill="#ffffff" stroke="#000000" points="252,-49.5 252,-79.5 468,-79.5 468,-49.5 252,-49.5"/>
<text text-anchor="start" x="260" y="-67.5" font-family="Helvetica,sans-Serif" font-size="10.00" fill="#000000">pymoduleconnector.moduleconnectorwrapper.</text>
<text text-anchor="middle" x="360" y="-56.5" font-family="Helvetica,sans-Serif" font-size="10.00" fill="#000000">SleepStageData</text>
</a>
</g>
</g>
<!-- Node165&#45;&gt;Node189 -->
<g id="edge24" class="edge">
<title>Node165&#45;&gt;Node189</title>
<path fill="none" stroke="#191970" d="M111.6337,-578.2676C125.6042,-484.7152 178.7616,-159.4672 252,-89.5 256.0357,-85.6446 260.5429,-82.3419 265.3631,-79.5161"/>
<polygon fill="#191970" stroke="#191970" points="108.1566,-577.8563 110.1598,-588.26 115.0817,-578.8778 108.1566,-577.8563"/>
</g>
<!-- Node190 -->
<g id="node26" class="node">
<title>Node190</title>
<g id="a_node26"><a xlink:href="classpymoduleconnector_1_1moduleconnectorwrapper_1_1_vital_signs_data.xhtml" target="_top" xlink:title="Various vital signs. ">
<polygon fill="#ffffff" stroke="#000000" points="252,-.5 252,-30.5 468,-30.5 468,-.5 252,-.5"/>
<text text-anchor="start" x="260" y="-18.5" font-family="Helvetica,sans-Serif" font-size="10.00" fill="#000000">pymoduleconnector.moduleconnectorwrapper.</text>
<text text-anchor="middle" x="360" y="-7.5" font-family="Helvetica,sans-Serif" font-size="10.00" fill="#000000">VitalSignsData</text>
</a>
</g>
</g>
<!-- Node165&#45;&gt;Node190 -->
<g id="edge25" class="edge">
<title>Node165&#45;&gt;Node190</title>
<path fill="none" stroke="#191970" d="M110.9527,-578.4878C123.113,-479.6936 172.457,-118.2397 252,-40.5 255.8539,-36.7335 260.1568,-33.4918 264.7643,-30.7052"/>
<polygon fill="#191970" stroke="#191970" points="107.4726,-578.1134 109.7423,-588.4622 114.4216,-578.9567 107.4726,-578.1134"/>
</g>
</g>
</svg>
