<?xml version="1.0" encoding="UTF-8" standalone="no"?>
<!DOCTYPE svg PUBLIC "-//W3C//DTD SVG 1.1//EN"
 "http://www.w3.org/Graphics/SVG/1.1/DTD/svg11.dtd">
<!-- Generated by graphviz version 2.38.0 (20140413.2041)
 -->
<!-- Title: Graphical Class Hierarchy Pages: 1 -->
<svg width="476pt" height="1068pt"
 viewBox="0.00 0.00 476.00 1068.00" xmlns="http://www.w3.org/2000/svg" xmlns:xlink="http://www.w3.org/1999/xlink">
<g id="graph0" class="graph" transform="scale(1 1) rotate(0) translate(4 1064)">
<title>Graphical Class Hierarchy</title>
<polygon fill="white" stroke="none" points="-4,4 -4,-1064 472,-1064 472,4 -4,4"/>
<!-- Node164 -->
<g id="node1" class="node"><title>Node164</title>
<polygon fill="white" stroke="#bfbfbf" points="0,-514.5 0,-544.5 216,-544.5 216,-514.5 0,-514.5"/>
<text text-anchor="start" x="8" y="-532.5" font-family="Helvetica,sans-Serif" font-size="10.00">pymoduleconnector.moduleconnectorwrapper.</text>
<text text-anchor="middle" x="108" y="-521.5" font-family="Helvetica,sans-Serif" font-size="10.00">_object</text>
</g>
<!-- Node0 -->
<g id="node2" class="node"><title>Node0</title>
<g id="a_node2"><a xlink:href="classpymoduleconnector_1_1moduleconnectorwrapper_1_1_baseband_ap_data.xhtml" target="_top" xlink:title="Represents amplitude phase baseband data coming from the module. ">
<polygon fill="white" stroke="black" points="252,-1029.5 252,-1059.5 468,-1059.5 468,-1029.5 252,-1029.5"/>
<text text-anchor="start" x="260" y="-1047.5" font-family="Helvetica,sans-Serif" font-size="10.00">pymoduleconnector.moduleconnectorwrapper.</text>
<text text-anchor="middle" x="360" y="-1036.5" font-family="Helvetica,sans-Serif" font-size="10.00">BasebandApData</text>
</a>
</g>
</g>
<!-- Node164&#45;&gt;Node0 -->
<g id="edge1" class="edge"><title>Node164&#45;&gt;Node0</title>
<path fill="none" stroke="midnightblue" d="M112.924,-554.799C127.532,-645.766 181.569,-954.356 252,-1020.5 255.608,-1023.89 259.587,-1026.84 263.824,-1029.4"/>
<polygon fill="midnightblue" stroke="midnightblue" points="116.364,-554.143 111.339,-544.815 109.45,-555.24 116.364,-554.143"/>
</g>
<!-- Node166 -->
<g id="node3" class="node"><title>Node166</title>
<g id="a_node3"><a xlink:href="classpymoduleconnector_1_1moduleconnectorwrapper_1_1_baseband_iq_data.xhtml" target="_top" xlink:title="Represents I/Q baseband data coming from the module. ">
<polygon fill="white" stroke="black" points="252,-980.5 252,-1010.5 468,-1010.5 468,-980.5 252,-980.5"/>
<text text-anchor="start" x="260" y="-998.5" font-family="Helvetica,sans-Serif" font-size="10.00">pymoduleconnector.moduleconnectorwrapper.</text>
<text text-anchor="middle" x="360" y="-987.5" font-family="Helvetica,sans-Serif" font-size="10.00">BasebandIqData</text>
</a>
</g>
</g>
<!-- Node164&#45;&gt;Node166 -->
<g id="edge2" class="edge"><title>Node164&#45;&gt;Node166</title>
<path fill="none" stroke="midnightblue" d="M109.043,-554.916C110.627,-630.673 126.177,-856.78 252,-971.5 255.658,-974.835 259.676,-977.74 263.944,-980.268"/>
<polygon fill="midnightblue" stroke="midnightblue" points="112.542,-554.81 108.899,-544.861 105.542,-554.91 112.542,-554.81"/>
</g>
<!-- Node167 -->
<g id="node4" class="node"><title>Node167</title>
<g id="a_node4"><a xlink:href="classpymoduleconnector_1_1moduleconnectorwrapper_1_1_data_record.xhtml" target="_top" xlink:title="Encapsulates data and information about one data record on disk. ">
<polygon fill="white" stroke="black" points="252,-931.5 252,-961.5 468,-961.5 468,-931.5 252,-931.5"/>
<text text-anchor="start" x="260" y="-949.5" font-family="Helvetica,sans-Serif" font-size="10.00">pymoduleconnector.moduleconnectorwrapper.</text>
<text text-anchor="middle" x="360" y="-938.5" font-family="Helvetica,sans-Serif" font-size="10.00">DataRecord</text>
</a>
</g>
</g>
<!-- Node164&#45;&gt;Node167 -->
<g id="edge3" class="edge"><title>Node164&#45;&gt;Node167</title>
<path fill="none" stroke="midnightblue" d="M110.211,-554.893C114.988,-624.993 138.393,-822.61 252,-922.5 255.86,-925.894 260.097,-928.839 264.586,-931.392"/>
<polygon fill="midnightblue" stroke="midnightblue" points="113.696,-554.54 109.593,-544.771 106.709,-554.966 113.696,-554.54"/>
</g>
<!-- Node168 -->
<g id="node5" class="node"><title>Node168</title>
<g id="a_node5"><a xlink:href="classpymoduleconnector_1_1moduleconnectorwrapper_1_1_data_type.xhtml" target="_top" xlink:title="Proxy of C++ XeThru::DataType class. ">
<polygon fill="white" stroke="black" points="252,-882.5 252,-912.5 468,-912.5 468,-882.5 252,-882.5"/>
<text text-anchor="start" x="260" y="-900.5" font-family="Helvetica,sans-Serif" font-size="10.00">pymoduleconnector.moduleconnectorwrapper.</text>
<text text-anchor="middle" x="360" y="-889.5" font-family="Helvetica,sans-Serif" font-size="10.00">DataType</text>
</a>
</g>
</g>
<!-- Node164&#45;&gt;Node168 -->
<g id="edge4" class="edge"><title>Node164&#45;&gt;Node168</title>
<path fill="none" stroke="midnightblue" d="M111.662,-554.739C119.814,-618.709 150.418,-788.157 252,-873.5 256.081,-876.929 260.55,-879.895 265.272,-882.458"/>
<polygon fill="midnightblue" stroke="midnightblue" points="115.128,-554.246 110.463,-544.733 108.178,-555.078 115.128,-554.246"/>
</g>
<!-- Node169 -->
<g id="node6" class="node"><title>Node169</title>
<g id="a_node6"><a xlink:href="classpymoduleconnector_1_1moduleconnectorwrapper_1_1_detection_zone.xhtml" target="_top" xlink:title="Representation of the detection zone. ">
<polygon fill="white" stroke="black" points="252,-833.5 252,-863.5 468,-863.5 468,-833.5 252,-833.5"/>
<text text-anchor="start" x="260" y="-851.5" font-family="Helvetica,sans-Serif" font-size="10.00">pymoduleconnector.moduleconnectorwrapper.</text>
<text text-anchor="middle" x="360" y="-840.5" font-family="Helvetica,sans-Serif" font-size="10.00">DetectionZone</text>
</a>
</g>
</g>
<!-- Node164&#45;&gt;Node169 -->
<g id="edge5" class="edge"><title>Node164&#45;&gt;Node169</title>
<path fill="none" stroke="midnightblue" d="M113.542,-554.624C125.3,-612.054 162.314,-753.441 252,-824.5 256.327,-827.929 261.047,-830.888 266.016,-833.442"/>
<polygon fill="midnightblue" stroke="midnightblue" points="116.936,-553.746 111.575,-544.608 110.067,-555.095 116.936,-553.746"/>
</g>
<!-- Node170 -->
<g id="node7" class="node"><title>Node170</title>
<g id="a_node7"><a xlink:href="classpymoduleconnector_1_1moduleconnectorwrapper_1_1_detection_zone_limits.xhtml" target="_top" xlink:title="Is an aggrgation of parameters used to represent the detection zone limits. ">
<polygon fill="white" stroke="black" points="252,-784.5 252,-814.5 468,-814.5 468,-784.5 252,-784.5"/>
<text text-anchor="start" x="260" y="-802.5" font-family="Helvetica,sans-Serif" font-size="10.00">pymoduleconnector.moduleconnectorwrapper.</text>
<text text-anchor="middle" x="360" y="-791.5" font-family="Helvetica,sans-Serif" font-size="10.00">DetectionZoneLimits</text>
</a>
</g>
</g>
<!-- Node164&#45;&gt;Node170 -->
<g id="edge6" class="edge"><title>Node164&#45;&gt;Node170</title>
<path fill="none" stroke="midnightblue" d="M116.001,-554.231C131.545,-604.407 173.882,-718.25 252,-775.5 256.683,-778.932 261.77,-781.888 267.096,-784.43"/>
<polygon fill="midnightblue" stroke="midnightblue" points="119.317,-553.104 113.087,-544.534 112.613,-555.118 119.317,-553.104"/>
</g>
<!-- Node171 -->
<g id="node8" class="node"><title>Node171</title>
<g id="a_node8"><a xlink:href="classpymoduleconnector_1_1moduleconnectorwrapper_1_1_files.xhtml" target="_top" xlink:title="pymoduleconnector.moduleconnectorwrapper.\lFiles">
<polygon fill="white" stroke="black" points="252,-735.5 252,-765.5 468,-765.5 468,-735.5 252,-735.5"/>
<text text-anchor="start" x="260" y="-753.5" font-family="Helvetica,sans-Serif" font-size="10.00">pymoduleconnector.moduleconnectorwrapper.</text>
<text text-anchor="middle" x="360" y="-742.5" font-family="Helvetica,sans-Serif" font-size="10.00">Files</text>
</a>
</g>
</g>
<!-- Node164&#45;&gt;Node171 -->
<g id="edge7" class="edge"><title>Node164&#45;&gt;Node171</title>
<path fill="none" stroke="midnightblue" d="M119.588,-553.993C139.194,-596.277 185.315,-682.64 252,-726.5 257.249,-729.952 262.923,-732.913 268.824,-735.452"/>
<polygon fill="midnightblue" stroke="midnightblue" points="122.702,-552.383 115.388,-544.718 116.325,-555.272 122.702,-552.383"/>
</g>
<!-- Node172 -->
<g id="node9" class="node"><title>Node172</title>
<g id="a_node9"><a xlink:href="classpymoduleconnector_1_1moduleconnectorwrapper_1_1_frame_area.xhtml" target="_top" xlink:title="pymoduleconnector.moduleconnectorwrapper.\lFrameArea">
<polygon fill="white" stroke="black" points="252,-686.5 252,-716.5 468,-716.5 468,-686.5 252,-686.5"/>
<text text-anchor="start" x="260" y="-704.5" font-family="Helvetica,sans-Serif" font-size="10.00">pymoduleconnector.moduleconnectorwrapper.</text>
<text text-anchor="middle" x="360" y="-693.5" font-family="Helvetica,sans-Serif" font-size="10.00">FrameArea</text>
</a>
</g>
</g>
<!-- Node164&#45;&gt;Node172 -->
<g id="edge8" class="edge"><title>Node164&#45;&gt;Node172</title>
<path fill="none" stroke="midnightblue" d="M124.892,-553.114C148.538,-586.304 196.233,-646.188 252,-677.5 258.142,-680.949 264.744,-683.902 271.544,-686.431"/>
<polygon fill="midnightblue" stroke="midnightblue" points="127.742,-551.081 119.141,-544.895 122.007,-555.095 127.742,-551.081"/>
</g>
<!-- Node173 -->
<g id="node10" class="node"><title>Node173</title>
<g id="a_node10"><a xlink:href="classpymoduleconnector_1_1moduleconnectorwrapper_1_1_preferred_split_size.xhtml" target="_top" xlink:title="The PreferredSplitSize class allows specifying a split size. ">
<polygon fill="white" stroke="black" points="252,-637.5 252,-667.5 468,-667.5 468,-637.5 252,-637.5"/>
<text text-anchor="start" x="260" y="-655.5" font-family="Helvetica,sans-Serif" font-size="10.00">pymoduleconnector.moduleconnectorwrapper.</text>
<text text-anchor="middle" x="360" y="-644.5" font-family="Helvetica,sans-Serif" font-size="10.00">PreferredSplitSize</text>
</a>
</g>
</g>
<!-- Node164&#45;&gt;Node173 -->
<g id="edge9" class="edge"><title>Node164&#45;&gt;Node173</title>
<path fill="none" stroke="midnightblue" d="M133.995,-551.328C161.204,-573.955 206.887,-608.726 252,-628.5 259.846,-631.939 268.241,-634.911 276.747,-637.473"/>
<polygon fill="midnightblue" stroke="midnightblue" points="136.066,-548.497 126.165,-544.726 131.554,-553.848 136.066,-548.497"/>
</g>
<!-- Node174 -->
<g id="node11" class="node"><title>Node174</title>
<g id="a_node11"><a xlink:href="classpymoduleconnector_1_1moduleconnectorwrapper_1_1_pulse_doppler_byte_data.xhtml" target="_top" xlink:title="Represents one half or one range bin of pulse&#45;Doppler in byte format. ">
<polygon fill="white" stroke="black" points="252,-588.5 252,-618.5 468,-618.5 468,-588.5 252,-588.5"/>
<text text-anchor="start" x="260" y="-606.5" font-family="Helvetica,sans-Serif" font-size="10.00">pymoduleconnector.moduleconnectorwrapper.</text>
<text text-anchor="middle" x="360" y="-595.5" font-family="Helvetica,sans-Serif" font-size="10.00">PulseDopplerByteData</text>
</a>
</g>
</g>
<!-- Node164&#45;&gt;Node174 -->
<g id="edge10" class="edge"><title>Node164&#45;&gt;Node174</title>
<path fill="none" stroke="midnightblue" d="M157.443,-548.007C184.927,-558.11 220.106,-570.38 252,-579.5 263.166,-582.693 275.085,-585.727 286.766,-588.496"/>
<polygon fill="midnightblue" stroke="midnightblue" points="158.653,-544.723 148.06,-544.533 156.222,-551.287 158.653,-544.723"/>
</g>
<!-- Node175 -->
<g id="node12" class="node"><title>Node175</title>
<g id="a_node12"><a xlink:href="classpymoduleconnector_1_1moduleconnectorwrapper_1_1_pulse_doppler_float_data.xhtml" target="_top" xlink:title="Represents one half or one range bin of pulse&#45;Doppler in float format. ">
<polygon fill="white" stroke="black" points="252,-539.5 252,-569.5 468,-569.5 468,-539.5 252,-539.5"/>
<text text-anchor="start" x="260" y="-557.5" font-family="Helvetica,sans-Serif" font-size="10.00">pymoduleconnector.moduleconnectorwrapper.</text>
<text text-anchor="middle" x="360" y="-546.5" font-family="Helvetica,sans-Serif" font-size="10.00">PulseDopplerFloatData</text>
</a>
</g>
</g>
<!-- Node164&#45;&gt;Node175 -->
<g id="edge11" class="edge"><title>Node164&#45;&gt;Node175</title>
<path fill="none" stroke="midnightblue" d="M226.104,-541.21C234.645,-542.065 243.235,-542.924 251.714,-543.771"/>
<polygon fill="midnightblue" stroke="midnightblue" points="226.409,-537.724 216.11,-540.211 225.713,-544.689 226.409,-537.724"/>
</g>
<!-- Node176 -->
<g id="node13" class="node"><title>Node176</title>
<g id="a_node13"><a xlink:href="classpymoduleconnector_1_1moduleconnectorwrapper_1_1_py_data_player.xhtml" target="_top" xlink:title="pymoduleconnector.moduleconnectorwrapper.\lPyDataPlayer">
<polygon fill="white" stroke="black" points="252,-490.5 252,-520.5 468,-520.5 468,-490.5 252,-490.5"/>
<text text-anchor="start" x="260" y="-508.5" font-family="Helvetica,sans-Serif" font-size="10.00">pymoduleconnector.moduleconnectorwrapper.</text>
<text text-anchor="middle" x="360" y="-497.5" font-family="Helvetica,sans-Serif" font-size="10.00">PyDataPlayer</text>
</a>
</g>
</g>
<!-- Node164&#45;&gt;Node176 -->
<g id="edge12" class="edge"><title>Node164&#45;&gt;Node176</title>
<path fill="none" stroke="midnightblue" d="M226.104,-518.258C234.645,-517.438 243.235,-516.613 251.714,-515.799"/>
<polygon fill="midnightblue" stroke="midnightblue" points="225.73,-514.778 216.11,-519.217 226.399,-521.746 225.73,-514.778"/>
</g>
<!-- Node177 -->
<g id="node14" class="node"><title>Node177</title>
<g id="a_node14"><a xlink:href="classpymoduleconnector_1_1moduleconnectorwrapper_1_1_py_data_reader.xhtml" target="_top" xlink:title="The PyDataReader class allows reading of xethru data records from a recording. ">
<polygon fill="white" stroke="black" points="252,-441.5 252,-471.5 468,-471.5 468,-441.5 252,-441.5"/>
<text text-anchor="start" x="260" y="-459.5" font-family="Helvetica,sans-Serif" font-size="10.00">pymoduleconnector.moduleconnectorwrapper.</text>
<text text-anchor="middle" x="360" y="-448.5" font-family="Helvetica,sans-Serif" font-size="10.00">PyDataReader</text>
</a>
</g>
</g>
<!-- Node164&#45;&gt;Node177 -->
<g id="edge13" class="edge"><title>Node164&#45;&gt;Node177</title>
<path fill="none" stroke="midnightblue" d="M159.955,-511.094C187.092,-501.623 221.15,-490.26 252,-481.5 264.295,-478.009 277.484,-474.632 290.256,-471.55"/>
<polygon fill="midnightblue" stroke="midnightblue" points="158.564,-507.873 150.289,-514.49 160.884,-514.478 158.564,-507.873"/>
</g>
<!-- Node178 -->
<g id="node15" class="node"><title>Node178</title>
<g id="a_node15"><a xlink:href="classpymoduleconnector_1_1moduleconnectorwrapper_1_1_py_data_recorder.xhtml" target="_top" xlink:title="The DataRecorder class allows recording of xethru data types. ">
<polygon fill="white" stroke="black" points="252,-392.5 252,-422.5 468,-422.5 468,-392.5 252,-392.5"/>
<text text-anchor="start" x="260" y="-410.5" font-family="Helvetica,sans-Serif" font-size="10.00">pymoduleconnector.moduleconnectorwrapper.</text>
<text text-anchor="middle" x="360" y="-399.5" font-family="Helvetica,sans-Serif" font-size="10.00">PyDataRecorder</text>
</a>
</g>
</g>
<!-- Node164&#45;&gt;Node178 -->
<g id="edge14" class="edge"><title>Node164&#45;&gt;Node178</title>
<path fill="none" stroke="midnightblue" d="M134.565,-507.845C161.921,-485.752 207.423,-452.022 252,-432.5 260.737,-428.674 270.143,-425.388 279.623,-422.579"/>
<polygon fill="midnightblue" stroke="midnightblue" points="132.201,-505.257 126.679,-514.299 136.634,-510.674 132.201,-505.257"/>
</g>
<!-- Node179 -->
<g id="node16" class="node"><title>Node179</title>
<g id="a_node16"><a xlink:href="classpymoduleconnector_1_1moduleconnectorwrapper_1_1_python_module_connector.xhtml" target="_top" xlink:title="This class is responsible for establishing contact with the XeThru module. ">
<polygon fill="white" stroke="black" points="252,-343.5 252,-373.5 468,-373.5 468,-343.5 252,-343.5"/>
<text text-anchor="start" x="260" y="-361.5" font-family="Helvetica,sans-Serif" font-size="10.00">pymoduleconnector.moduleconnectorwrapper.</text>
<text text-anchor="middle" x="360" y="-350.5" font-family="Helvetica,sans-Serif" font-size="10.00">PythonModuleConnector</text>
</a>
</g>
</g>
<!-- Node164&#45;&gt;Node179 -->
<g id="edge15" class="edge"><title>Node164&#45;&gt;Node179</title>
<path fill="none" stroke="midnightblue" d="M125.311,-505.859C149.198,-473.121 196.889,-414.519 252,-383.5 258.899,-379.617 266.373,-376.336 274.055,-373.563"/>
<polygon fill="midnightblue" stroke="midnightblue" points="122.198,-504.195 119.219,-514.362 127.888,-508.272 122.198,-504.195"/>
</g>
<!-- Node180 -->
<g id="node17" class="node"><title>Node180</title>
<g id="a_node17"><a xlink:href="classpymoduleconnector_1_1moduleconnectorwrapper_1_1_py_x2_m200.xhtml" target="_top" xlink:title="Interface to the Xethru X2M200 Application module. ">
<polygon fill="white" stroke="black" points="252,-294.5 252,-324.5 468,-324.5 468,-294.5 252,-294.5"/>
<text text-anchor="start" x="260" y="-312.5" font-family="Helvetica,sans-Serif" font-size="10.00">pymoduleconnector.moduleconnectorwrapper.</text>
<text text-anchor="middle" x="360" y="-301.5" font-family="Helvetica,sans-Serif" font-size="10.00">PyX2M200</text>
</a>
</g>
</g>
<!-- Node164&#45;&gt;Node180 -->
<g id="edge16" class="edge"><title>Node164&#45;&gt;Node180</title>
<path fill="none" stroke="midnightblue" d="M119.698,-505.315C139.472,-463.552 185.845,-378.202 252,-334.5 257.889,-330.61 264.312,-327.321 270.989,-324.543"/>
<polygon fill="midnightblue" stroke="midnightblue" points="116.482,-503.929 115.458,-514.475 122.835,-506.869 116.482,-503.929"/>
</g>
<!-- Node181 -->
<g id="node18" class="node"><title>Node181</title>
<g id="a_node18"><a xlink:href="classpymoduleconnector_1_1moduleconnectorwrapper_1_1_py_x4_m200.xhtml" target="_top" xlink:title="C++ includes: PyX4M200.hpp. ">
<polygon fill="white" stroke="black" points="252,-245.5 252,-275.5 468,-275.5 468,-245.5 252,-245.5"/>
<text text-anchor="start" x="260" y="-263.5" font-family="Helvetica,sans-Serif" font-size="10.00">pymoduleconnector.moduleconnectorwrapper.</text>
<text text-anchor="middle" x="360" y="-252.5" font-family="Helvetica,sans-Serif" font-size="10.00">PyX4M200</text>
</a>
</g>
</g>
<!-- Node164&#45;&gt;Node181 -->
<g id="edge17" class="edge"><title>Node164&#45;&gt;Node181</title>
<path fill="none" stroke="midnightblue" d="M116.216,-504.667C132.041,-454.817 174.692,-342.473 252,-285.5 257.221,-281.652 262.943,-278.385 268.94,-275.613"/>
<polygon fill="midnightblue" stroke="midnightblue" points="112.844,-503.726 113.244,-514.314 119.534,-505.788 112.844,-503.726"/>
</g>
<!-- Node182 -->
<g id="node19" class="node"><title>Node182</title>
<g id="a_node19"><a xlink:href="classpymoduleconnector_1_1moduleconnectorwrapper_1_1_py_x4_m300.xhtml" target="_top" xlink:title="C++ includes: PyX4M300.hpp. ">
<polygon fill="white" stroke="black" points="252,-196.5 252,-226.5 468,-226.5 468,-196.5 252,-196.5"/>
<text text-anchor="start" x="260" y="-214.5" font-family="Helvetica,sans-Serif" font-size="10.00">pymoduleconnector.moduleconnectorwrapper.</text>
<text text-anchor="middle" x="360" y="-203.5" font-family="Helvetica,sans-Serif" font-size="10.00">PyX4M300</text>
</a>
</g>
</g>
<!-- Node164&#45;&gt;Node182 -->
<g id="edge18" class="edge"><title>Node164&#45;&gt;Node182</title>
<path fill="none" stroke="midnightblue" d="M113.724,-504.197C125.781,-447.009 163.234,-307.28 252,-236.5 256.848,-232.635 262.189,-229.348 267.82,-226.555"/>
<polygon fill="midnightblue" stroke="midnightblue" points="110.256,-503.689 111.703,-514.185 117.117,-505.078 110.256,-503.689"/>
</g>
<!-- Node183 -->
<g id="node20" class="node"><title>Node183</title>
<g id="a_node20"><a xlink:href="classpymoduleconnector_1_1moduleconnectorwrapper_1_1_py_x_e_p.xhtml" target="_top" xlink:title="C++ includes: PyXEP.hpp. ">
<polygon fill="white" stroke="black" points="252,-147.5 252,-177.5 468,-177.5 468,-147.5 252,-147.5"/>
<text text-anchor="start" x="260" y="-165.5" font-family="Helvetica,sans-Serif" font-size="10.00">pymoduleconnector.moduleconnectorwrapper.</text>
<text text-anchor="middle" x="360" y="-154.5" font-family="Helvetica,sans-Serif" font-size="10.00">PyXEP</text>
</a>
</g>
</g>
<!-- Node164&#45;&gt;Node183 -->
<g id="edge19" class="edge"><title>Node164&#45;&gt;Node183</title>
<path fill="none" stroke="midnightblue" d="M111.756,-504.457C120.129,-440.976 151.211,-272.763 252,-187.5 256.588,-183.619 261.667,-180.314 267.046,-177.503"/>
<polygon fill="midnightblue" stroke="midnightblue" points="108.282,-504.031 110.522,-514.386 115.229,-504.894 108.282,-504.031"/>
</g>
<!-- Node184 -->
<g id="node21" class="node"><title>Node184</title>
<g id="a_node21"><a xlink:href="classpymoduleconnector_1_1moduleconnectorwrapper_1_1_recording_options.xhtml" target="_top" xlink:title="The RecordingOptions class allows specifying options for recording. ">
<polygon fill="white" stroke="black" points="252,-98.5 252,-128.5 468,-128.5 468,-98.5 252,-98.5"/>
<text text-anchor="start" x="260" y="-116.5" font-family="Helvetica,sans-Serif" font-size="10.00">pymoduleconnector.moduleconnectorwrapper.</text>
<text text-anchor="middle" x="360" y="-105.5" font-family="Helvetica,sans-Serif" font-size="10.00">RecordingOptions</text>
</a>
</g>
</g>
<!-- Node164&#45;&gt;Node184 -->
<g id="edge20" class="edge"><title>Node164&#45;&gt;Node184</title>
<path fill="none" stroke="midnightblue" d="M110.301,-504.285C115.312,-434.667 139.264,-238.349 252,-138.5 256.356,-134.642 261.192,-131.349 266.333,-128.54"/>
<polygon fill="midnightblue" stroke="midnightblue" points="106.804,-504.131 109.649,-514.336 113.789,-504.584 106.804,-504.131"/>
</g>
<!-- Node185 -->
<g id="node22" class="node"><title>Node185</title>
<g id="a_node22"><a xlink:href="classpymoduleconnector_1_1moduleconnectorwrapper_1_1_respiration_data.xhtml" target="_top" xlink:title="Represents the respiration status data coming from the module. ">
<polygon fill="white" stroke="black" points="252,-49.5 252,-79.5 468,-79.5 468,-49.5 252,-49.5"/>
<text text-anchor="start" x="260" y="-67.5" font-family="Helvetica,sans-Serif" font-size="10.00">pymoduleconnector.moduleconnectorwrapper.</text>
<text text-anchor="middle" x="360" y="-56.5" font-family="Helvetica,sans-Serif" font-size="10.00">RespirationData</text>
</a>
</g>
</g>
<!-- Node164&#45;&gt;Node185 -->
<g id="edge21" class="edge"><title>Node164&#45;&gt;Node185</title>
<path fill="none" stroke="midnightblue" d="M109.141,-503.782C111.026,-428.047 127.38,-203.987 252,-89.5 256.074,-85.7573 260.598,-82.5417 265.418,-79.7818"/>
<polygon fill="midnightblue" stroke="midnightblue" points="105.634,-504.177 108.953,-514.238 112.633,-504.303 105.634,-504.177"/>
</g>
<!-- Node186 -->
<g id="node23" class="node"><title>Node186</title>
<g id="a_node23"><a xlink:href="classpymoduleconnector_1_1moduleconnectorwrapper_1_1_sleep_data.xhtml" target="_top" xlink:title="Represents the sleep status data coming from the module. ">
<polygon fill="white" stroke="black" points="252,-0.5 252,-30.5 468,-30.5 468,-0.5 252,-0.5"/>
<text text-anchor="start" x="260" y="-18.5" font-family="Helvetica,sans-Serif" font-size="10.00">pymoduleconnector.moduleconnectorwrapper.</text>
<text text-anchor="middle" x="360" y="-7.5" font-family="Helvetica,sans-Serif" font-size="10.00">SleepData</text>
</a>
</g>
</g>
<!-- Node164&#45;&gt;Node186 -->
<g id="edge22" class="edge"><title>Node164&#45;&gt;Node186</title>
<path fill="none" stroke="midnightblue" d="M108.174,-504.231C107.003,-423.621 114.874,-170.288 252,-40.5 256.018,-36.6971 260.499,-33.435 265.286,-30.6399"/>
<polygon fill="midnightblue" stroke="midnightblue" points="104.679,-504.503 108.387,-514.428 111.678,-504.357 104.679,-504.503"/>
</g>
</g>
</svg>
