<?xml version="1.0" encoding="UTF-8" standalone="no"?>
<!DOCTYPE svg PUBLIC "-//W3C//DTD SVG 1.1//EN"
 "http://www.w3.org/Graphics/SVG/1.1/DTD/svg11.dtd">
<!-- Generated by graphviz version 2.38.0 (20140413.2041)
 -->
<!-- Title: Graphical Class Hierarchy Pages: 1 -->
<svg width="485pt" height="1024pt"
 viewBox="0.00 0.00 485.16 1024.00" xmlns="http://www.w3.org/2000/svg" xmlns:xlink="http://www.w3.org/1999/xlink">
<g id="graph0" class="graph" transform="scale(1 1) rotate(0) translate(4 1020)">
<title>Graphical Class Hierarchy</title>
<polygon fill="white" stroke="none" points="-4,4 -4,-1020 481.16,-1020 481.16,4 -4,4"/>
<!-- Node164 -->
<g id="node1" class="node"><title>Node164</title>
<polygon fill="white" stroke="#bfbfbf" points="0,-493.5 0,-521.5 220.58,-521.5 220.58,-493.5 0,-493.5"/>
<text text-anchor="start" x="8" y="-509.5" font-family="Helvetica,sans-Serif" font-size="10.00">pymoduleconnector.moduleconnectorwrapper.</text>
<text text-anchor="middle" x="110.29" y="-499.5" font-family="Helvetica,sans-Serif" font-size="10.00">_object</text>
</g>
<!-- Node0 -->
<g id="node2" class="node"><title>Node0</title>
<g id="a_node2"><a xlink:href="classpymoduleconnector_1_1moduleconnectorwrapper_1_1_baseband_ap_data.xhtml" target="_top" xlink:title="Represents amplitude phase baseband data coming from the module. ">
<polygon fill="white" stroke="black" points="256.58,-987.5 256.58,-1015.5 477.16,-1015.5 477.16,-987.5 256.58,-987.5"/>
<text text-anchor="start" x="264.58" y="-1003.5" font-family="Helvetica,sans-Serif" font-size="10.00">pymoduleconnector.moduleconnectorwrapper.</text>
<text text-anchor="middle" x="366.87" y="-993.5" font-family="Helvetica,sans-Serif" font-size="10.00">BasebandApData</text>
</a>
</g>
</g>
<!-- Node164&#45;&gt;Node0 -->
<g id="edge1" class="edge"><title>Node164&#45;&gt;Node0</title>
<path fill="none" stroke="midnightblue" d="M110.813,-531.953C110.71,-610.024 121.602,-855.376 256.58,-978.5 260.305,-981.897 264.4,-984.842 268.752,-987.391"/>
<polygon fill="midnightblue" stroke="midnightblue" points="114.315,-531.711 110.895,-521.683 107.315,-531.655 114.315,-531.711"/>
</g>
<!-- Node166 -->
<g id="node3" class="node"><title>Node166</title>
<g id="a_node3"><a xlink:href="classpymoduleconnector_1_1moduleconnectorwrapper_1_1_baseband_iq_data.xhtml" target="_top" xlink:title="Represents I/Q baseband data coming from the module. ">
<polygon fill="white" stroke="black" points="256.58,-940.5 256.58,-968.5 477.16,-968.5 477.16,-940.5 256.58,-940.5"/>
<text text-anchor="start" x="264.58" y="-956.5" font-family="Helvetica,sans-Serif" font-size="10.00">pymoduleconnector.moduleconnectorwrapper.</text>
<text text-anchor="middle" x="366.87" y="-946.5" font-family="Helvetica,sans-Serif" font-size="10.00">BasebandIqData</text>
</a>
</g>
</g>
<!-- Node164&#45;&gt;Node166 -->
<g id="edge2" class="edge"><title>Node164&#45;&gt;Node166</title>
<path fill="none" stroke="midnightblue" d="M111.772,-531.95C114.61,-604.895 133.49,-822.658 256.58,-931.5 260.429,-934.904 264.653,-937.849 269.132,-940.395"/>
<polygon fill="midnightblue" stroke="midnightblue" points="115.268,-531.778 111.45,-521.895 108.272,-532.002 115.268,-531.778"/>
</g>
<!-- Node167 -->
<g id="node4" class="node"><title>Node167</title>
<g id="a_node4"><a xlink:href="classpymoduleconnector_1_1moduleconnectorwrapper_1_1_data_record.xhtml" target="_top" xlink:title="Encapsulates data and information about one data record on disk. ">
<polygon fill="white" stroke="black" points="256.58,-893.5 256.58,-921.5 477.16,-921.5 477.16,-893.5 256.58,-893.5"/>
<text text-anchor="start" x="264.58" y="-909.5" font-family="Helvetica,sans-Serif" font-size="10.00">pymoduleconnector.moduleconnectorwrapper.</text>
<text text-anchor="middle" x="366.87" y="-899.5" font-family="Helvetica,sans-Serif" font-size="10.00">DataRecord</text>
</a>
</g>
</g>
<!-- Node164&#45;&gt;Node167 -->
<g id="edge3" class="edge"><title>Node164&#45;&gt;Node167</title>
<path fill="none" stroke="midnightblue" d="M112.946,-531.929C118.902,-599.431 145.267,-789.751 256.58,-884.5 260.64,-887.956 265.09,-890.935 269.797,-893.5"/>
<polygon fill="midnightblue" stroke="midnightblue" points="116.425,-531.52 112.13,-521.835 109.447,-532.085 116.425,-531.52"/>
</g>
<!-- Node168 -->
<g id="node5" class="node"><title>Node168</title>
<g id="a_node5"><a xlink:href="classpymoduleconnector_1_1moduleconnectorwrapper_1_1_data_type.xhtml" target="_top" xlink:title="Proxy of C++ XeThru::DataType class. ">
<polygon fill="white" stroke="black" points="256.58,-846.5 256.58,-874.5 477.16,-874.5 477.16,-846.5 256.58,-846.5"/>
<text text-anchor="start" x="264.58" y="-862.5" font-family="Helvetica,sans-Serif" font-size="10.00">pymoduleconnector.moduleconnectorwrapper.</text>
<text text-anchor="middle" x="366.87" y="-852.5" font-family="Helvetica,sans-Serif" font-size="10.00">DataType</text>
</a>
</g>
</g>
<!-- Node164&#45;&gt;Node168 -->
<g id="edge4" class="edge"><title>Node164&#45;&gt;Node168</title>
<path fill="none" stroke="midnightblue" d="M114.403,-531.782C123.653,-593.38 156.849,-756.564 256.58,-837.5 260.796,-840.921 265.396,-843.869 270.248,-846.406"/>
<polygon fill="midnightblue" stroke="midnightblue" points="117.86,-531.232 112.987,-521.825 110.93,-532.218 117.86,-531.232"/>
</g>
<!-- Node169 -->
<g id="node6" class="node"><title>Node169</title>
<g id="a_node6"><a xlink:href="classpymoduleconnector_1_1moduleconnectorwrapper_1_1_detection_zone.xhtml" target="_top" xlink:title="Representation of the detection zone. ">
<polygon fill="white" stroke="black" points="256.58,-799.5 256.58,-827.5 477.16,-827.5 477.16,-799.5 256.58,-799.5"/>
<text text-anchor="start" x="264.58" y="-815.5" font-family="Helvetica,sans-Serif" font-size="10.00">pymoduleconnector.moduleconnectorwrapper.</text>
<text text-anchor="middle" x="366.87" y="-805.5" font-family="Helvetica,sans-Serif" font-size="10.00">DetectionZone</text>
</a>
</g>
</g>
<!-- Node164&#45;&gt;Node169 -->
<g id="edge5" class="edge"><title>Node164&#45;&gt;Node169</title>
<path fill="none" stroke="midnightblue" d="M116.29,-531.671C129.06,-586.971 168.298,-723.114 256.58,-790.5 261.127,-793.971 266.077,-796.947 271.277,-799.496"/>
<polygon fill="midnightblue" stroke="midnightblue" points="119.668,-530.736 114.083,-521.733 112.835,-532.254 119.668,-530.736"/>
</g>
<!-- Node170 -->
<g id="node7" class="node"><title>Node170</title>
<g id="a_node7"><a xlink:href="classpymoduleconnector_1_1moduleconnectorwrapper_1_1_detection_zone_limits.xhtml" target="_top" xlink:title="Is an aggrgation of parameters used to represent the detection zone limits. ">
<polygon fill="white" stroke="black" points="256.58,-752.5 256.58,-780.5 477.16,-780.5 477.16,-752.5 256.58,-752.5"/>
<text text-anchor="start" x="264.58" y="-768.5" font-family="Helvetica,sans-Serif" font-size="10.00">pymoduleconnector.moduleconnectorwrapper.</text>
<text text-anchor="middle" x="366.87" y="-758.5" font-family="Helvetica,sans-Serif" font-size="10.00">DetectionZoneLimits</text>
</a>
</g>
</g>
<!-- Node164&#45;&gt;Node170 -->
<g id="edge6" class="edge"><title>Node164&#45;&gt;Node170</title>
<path fill="none" stroke="midnightblue" d="M118.755,-531.29C135.213,-579.599 179.414,-689.2 256.58,-743.5 261.496,-746.959 266.824,-749.918 272.392,-752.446"/>
<polygon fill="midnightblue" stroke="midnightblue" points="122.043,-530.085 115.578,-521.692 115.397,-532.285 122.043,-530.085"/>
</g>
<!-- Node171 -->
<g id="node8" class="node"><title>Node171</title>
<g id="a_node8"><a xlink:href="classpymoduleconnector_1_1moduleconnectorwrapper_1_1_files.xhtml" target="_top" xlink:title="pymoduleconnector.moduleconnectorwrapper.\lFiles">
<polygon fill="white" stroke="black" points="256.58,-705.5 256.58,-733.5 477.16,-733.5 477.16,-705.5 256.58,-705.5"/>
<text text-anchor="start" x="264.58" y="-721.5" font-family="Helvetica,sans-Serif" font-size="10.00">pymoduleconnector.moduleconnectorwrapper.</text>
<text text-anchor="middle" x="366.87" y="-711.5" font-family="Helvetica,sans-Serif" font-size="10.00">Files</text>
</a>
</g>
</g>
<!-- Node164&#45;&gt;Node171 -->
<g id="edge7" class="edge"><title>Node164&#45;&gt;Node171</title>
<path fill="none" stroke="midnightblue" d="M122.206,-530.756C142.535,-571.347 190.23,-654.771 256.58,-696.5 262.079,-699.958 268.009,-702.905 274.165,-705.415"/>
<polygon fill="midnightblue" stroke="midnightblue" points="125.281,-529.078 117.74,-521.636 118.995,-532.157 125.281,-529.078"/>
</g>
<!-- Node172 -->
<g id="node9" class="node"><title>Node172</title>
<g id="a_node9"><a xlink:href="classpymoduleconnector_1_1moduleconnectorwrapper_1_1_frame_area.xhtml" target="_top" xlink:title="pymoduleconnector.moduleconnectorwrapper.\lFrameArea">
<polygon fill="white" stroke="black" points="256.58,-658.5 256.58,-686.5 477.16,-686.5 477.16,-658.5 256.58,-658.5"/>
<text text-anchor="start" x="264.58" y="-674.5" font-family="Helvetica,sans-Serif" font-size="10.00">pymoduleconnector.moduleconnectorwrapper.</text>
<text text-anchor="middle" x="366.87" y="-664.5" font-family="Helvetica,sans-Serif" font-size="10.00">FrameArea</text>
</a>
</g>
</g>
<!-- Node164&#45;&gt;Node172 -->
<g id="edge8" class="edge"><title>Node164&#45;&gt;Node172</title>
<path fill="none" stroke="midnightblue" d="M127.639,-530.154C151.963,-562.078 200.846,-619.723 256.58,-649.5 263.079,-652.972 270.056,-655.92 277.227,-658.423"/>
<polygon fill="midnightblue" stroke="midnightblue" points="130.238,-527.785 121.444,-521.876 124.633,-531.979 130.238,-527.785"/>
</g>
<!-- Node173 -->
<g id="node10" class="node"><title>Node173</title>
<g id="a_node10"><a xlink:href="classpymoduleconnector_1_1moduleconnectorwrapper_1_1_preferred_split_size.xhtml" target="_top" xlink:title="The PreferredSplitSize class allows specifying a split size. ">
<polygon fill="white" stroke="black" points="256.58,-611.5 256.58,-639.5 477.16,-639.5 477.16,-611.5 256.58,-611.5"/>
<text text-anchor="start" x="264.58" y="-627.5" font-family="Helvetica,sans-Serif" font-size="10.00">pymoduleconnector.moduleconnectorwrapper.</text>
<text text-anchor="middle" x="366.87" y="-617.5" font-family="Helvetica,sans-Serif" font-size="10.00">PreferredSplitSize</text>
</a>
</g>
</g>
<!-- Node164&#45;&gt;Node173 -->
<g id="edge9" class="edge"><title>Node164&#45;&gt;Node173</title>
<path fill="none" stroke="midnightblue" d="M136.392,-528.139C164.122,-549.886 210.919,-583.557 256.58,-602.5 264.908,-605.955 273.816,-608.914 282.82,-611.442"/>
<polygon fill="midnightblue" stroke="midnightblue" points="138.426,-525.285 128.42,-521.802 134.07,-530.764 138.426,-525.285"/>
</g>
<!-- Node174 -->
<g id="node11" class="node"><title>Node174</title>
<g id="a_node11"><a xlink:href="classpymoduleconnector_1_1moduleconnectorwrapper_1_1_pulse_doppler_byte_data.xhtml" target="_top" xlink:title="Represents one half or one range bin of pulse&#45;Doppler in byte format. ">
<polygon fill="white" stroke="black" points="256.58,-564.5 256.58,-592.5 477.16,-592.5 477.16,-564.5 256.58,-564.5"/>
<text text-anchor="start" x="264.58" y="-580.5" font-family="Helvetica,sans-Serif" font-size="10.00">pymoduleconnector.moduleconnectorwrapper.</text>
<text text-anchor="middle" x="366.87" y="-570.5" font-family="Helvetica,sans-Serif" font-size="10.00">PulseDopplerByteData</text>
</a>
</g>
</g>
<!-- Node164&#45;&gt;Node174 -->
<g id="edge10" class="edge"><title>Node164&#45;&gt;Node174</title>
<path fill="none" stroke="midnightblue" d="M159.365,-524.883C187.473,-534.667 223.77,-546.657 256.58,-555.5 268.468,-558.704 281.183,-561.734 293.583,-564.478"/>
<polygon fill="midnightblue" stroke="midnightblue" points="160.379,-521.529 149.784,-521.522 158.063,-528.135 160.379,-521.529"/>
</g>
<!-- Node175 -->
<g id="node12" class="node"><title>Node175</title>
<g id="a_node12"><a xlink:href="classpymoduleconnector_1_1moduleconnectorwrapper_1_1_pulse_doppler_float_data.xhtml" target="_top" xlink:title="Represents one half or one range bin of pulse&#45;Doppler in float format. ">
<polygon fill="white" stroke="black" points="256.58,-517.5 256.58,-545.5 477.16,-545.5 477.16,-517.5 256.58,-517.5"/>
<text text-anchor="start" x="264.58" y="-533.5" font-family="Helvetica,sans-Serif" font-size="10.00">pymoduleconnector.moduleconnectorwrapper.</text>
<text text-anchor="middle" x="366.87" y="-523.5" font-family="Helvetica,sans-Serif" font-size="10.00">PulseDopplerFloatData</text>
</a>
</g>
</g>
<!-- Node164&#45;&gt;Node175 -->
<g id="edge11" class="edge"><title>Node164&#45;&gt;Node175</title>
<path fill="none" stroke="midnightblue" d="M230.779,-518.765C239.364,-519.574 247.997,-520.388 256.52,-521.191"/>
<polygon fill="midnightblue" stroke="midnightblue" points="231.017,-515.272 220.732,-517.817 230.36,-522.241 231.017,-515.272"/>
</g>
<!-- Node176 -->
<g id="node13" class="node"><title>Node176</title>
<g id="a_node13"><a xlink:href="classpymoduleconnector_1_1moduleconnectorwrapper_1_1_py_data_player.xhtml" target="_top" xlink:title="pymoduleconnector.moduleconnectorwrapper.\lPyDataPlayer">
<polygon fill="white" stroke="black" points="256.58,-470.5 256.58,-498.5 477.16,-498.5 477.16,-470.5 256.58,-470.5"/>
<text text-anchor="start" x="264.58" y="-486.5" font-family="Helvetica,sans-Serif" font-size="10.00">pymoduleconnector.moduleconnectorwrapper.</text>
<text text-anchor="middle" x="366.87" y="-476.5" font-family="Helvetica,sans-Serif" font-size="10.00">PyDataPlayer</text>
</a>
</g>
</g>
<!-- Node164&#45;&gt;Node176 -->
<g id="edge12" class="edge"><title>Node164&#45;&gt;Node176</title>
<path fill="none" stroke="midnightblue" d="M230.779,-496.705C239.364,-495.929 247.997,-495.149 256.52,-494.379"/>
<polygon fill="midnightblue" stroke="midnightblue" points="230.377,-493.227 220.732,-497.612 231.007,-500.198 230.377,-493.227"/>
</g>
<!-- Node177 -->
<g id="node14" class="node"><title>Node177</title>
<g id="a_node14"><a xlink:href="classpymoduleconnector_1_1moduleconnectorwrapper_1_1_py_data_reader.xhtml" target="_top" xlink:title="The PyDataReader class allows reading of xethru data records from a recording. ">
<polygon fill="white" stroke="black" points="256.58,-423.5 256.58,-451.5 477.16,-451.5 477.16,-423.5 256.58,-423.5"/>
<text text-anchor="start" x="264.58" y="-439.5" font-family="Helvetica,sans-Serif" font-size="10.00">pymoduleconnector.moduleconnectorwrapper.</text>
<text text-anchor="middle" x="366.87" y="-429.5" font-family="Helvetica,sans-Serif" font-size="10.00">PyDataReader</text>
</a>
</g>
</g>
<!-- Node164&#45;&gt;Node177 -->
<g id="edge13" class="edge"><title>Node164&#45;&gt;Node177</title>
<path fill="none" stroke="midnightblue" d="M161.832,-490.26C189.616,-481.097 224.8,-470.002 256.58,-461.5 269.716,-457.986 283.84,-454.599 297.429,-451.533"/>
<polygon fill="midnightblue" stroke="midnightblue" points="160.72,-486.941 152.331,-493.413 162.925,-493.585 160.72,-486.941"/>
</g>
<!-- Node178 -->
<g id="node15" class="node"><title>Node178</title>
<g id="a_node15"><a xlink:href="classpymoduleconnector_1_1moduleconnectorwrapper_1_1_py_data_recorder.xhtml" target="_top" xlink:title="The DataRecorder class allows recording of xethru data types. ">
<polygon fill="white" stroke="black" points="256.58,-376.5 256.58,-404.5 477.16,-404.5 477.16,-376.5 256.58,-376.5"/>
<text text-anchor="start" x="264.58" y="-392.5" font-family="Helvetica,sans-Serif" font-size="10.00">pymoduleconnector.moduleconnectorwrapper.</text>
<text text-anchor="middle" x="366.87" y="-382.5" font-family="Helvetica,sans-Serif" font-size="10.00">PyDataRecorder</text>
</a>
</g>
</g>
<!-- Node164&#45;&gt;Node178 -->
<g id="edge14" class="edge"><title>Node164&#45;&gt;Node178</title>
<path fill="none" stroke="midnightblue" d="M136.962,-487.043C164.839,-465.829 211.446,-433.199 256.58,-414.5 265.912,-410.634 275.963,-407.348 286.054,-404.566"/>
<polygon fill="midnightblue" stroke="midnightblue" points="134.717,-484.355 128.934,-493.233 138.991,-489.899 134.717,-484.355"/>
</g>
<!-- Node179 -->
<g id="node16" class="node"><title>Node179</title>
<g id="a_node16"><a xlink:href="classpymoduleconnector_1_1moduleconnectorwrapper_1_1_python_module_connector.xhtml" target="_top" xlink:title="This class is responsible for establishing contact with the XeThru module. ">
<polygon fill="white" stroke="black" points="256.58,-329.5 256.58,-357.5 477.16,-357.5 477.16,-329.5 256.58,-329.5"/>
<text text-anchor="start" x="264.58" y="-345.5" font-family="Helvetica,sans-Serif" font-size="10.00">pymoduleconnector.moduleconnectorwrapper.</text>
<text text-anchor="middle" x="366.87" y="-335.5" font-family="Helvetica,sans-Serif" font-size="10.00">PythonModuleConnector</text>
</a>
</g>
</g>
<!-- Node164&#45;&gt;Node179 -->
<g id="edge15" class="edge"><title>Node164&#45;&gt;Node179</title>
<path fill="none" stroke="midnightblue" d="M127.749,-485.236C152.208,-453.848 201.253,-397.118 256.58,-367.5 263.944,-363.558 271.918,-360.263 280.089,-357.508"/>
<polygon fill="midnightblue" stroke="midnightblue" points="124.818,-483.306 121.517,-493.373 130.376,-487.562 124.818,-483.306"/>
</g>
<!-- Node180 -->
<g id="node17" class="node"><title>Node180</title>
<g id="a_node17"><a xlink:href="classpymoduleconnector_1_1moduleconnectorwrapper_1_1_py_x2_m200.xhtml" target="_top" xlink:title="Interface to the Xethru X2M200 Application module. ">
<polygon fill="white" stroke="black" points="256.58,-282.5 256.58,-310.5 477.16,-310.5 477.16,-282.5 256.58,-282.5"/>
<text text-anchor="start" x="264.58" y="-298.5" font-family="Helvetica,sans-Serif" font-size="10.00">pymoduleconnector.moduleconnectorwrapper.</text>
<text text-anchor="middle" x="366.87" y="-288.5" font-family="Helvetica,sans-Serif" font-size="10.00">PyX2M200</text>
</a>
</g>
</g>
<!-- Node164&#45;&gt;Node180 -->
<g id="edge16" class="edge"><title>Node164&#45;&gt;Node180</title>
<path fill="none" stroke="midnightblue" d="M122.461,-484.254C143.037,-444.074 190.906,-361.969 256.58,-320.5 262.74,-316.611 269.44,-313.346 276.39,-310.606"/>
<polygon fill="midnightblue" stroke="midnightblue" points="119.283,-482.783 117.933,-493.291 125.542,-485.918 119.283,-482.783"/>
</g>
<!-- Node181 -->
<g id="node18" class="node"><title>Node181</title>
<g id="a_node18"><a xlink:href="classpymoduleconnector_1_1moduleconnectorwrapper_1_1_py_x4_m200.xhtml" target="_top" xlink:title="C++ includes: PyX4M200.hpp. ">
<polygon fill="white" stroke="black" points="256.58,-235.5 256.58,-263.5 477.16,-263.5 477.16,-235.5 256.58,-235.5"/>
<text text-anchor="start" x="264.58" y="-251.5" font-family="Helvetica,sans-Serif" font-size="10.00">pymoduleconnector.moduleconnectorwrapper.</text>
<text text-anchor="middle" x="366.87" y="-241.5" font-family="Helvetica,sans-Serif" font-size="10.00">PyX4M200</text>
</a>
</g>
</g>
<!-- Node164&#45;&gt;Node181 -->
<g id="edge17" class="edge"><title>Node164&#45;&gt;Node181</title>
<path fill="none" stroke="midnightblue" d="M118.854,-483.964C135.497,-436.16 180.021,-327.656 256.58,-273.5 262.052,-269.63 268.033,-266.367 274.288,-263.617"/>
<polygon fill="midnightblue" stroke="midnightblue" points="115.531,-482.866 115.64,-493.461 122.161,-485.111 115.531,-482.866"/>
</g>
<!-- Node182 -->
<g id="node19" class="node"><title>Node182</title>
<g id="a_node19"><a xlink:href="classpymoduleconnector_1_1moduleconnectorwrapper_1_1_py_x4_m300.xhtml" target="_top" xlink:title="C++ includes: PyX4M300.hpp. ">
<polygon fill="white" stroke="black" points="256.58,-188.5 256.58,-216.5 477.16,-216.5 477.16,-188.5 256.58,-188.5"/>
<text text-anchor="start" x="264.58" y="-204.5" font-family="Helvetica,sans-Serif" font-size="10.00">pymoduleconnector.moduleconnectorwrapper.</text>
<text text-anchor="middle" x="366.87" y="-194.5" font-family="Helvetica,sans-Serif" font-size="10.00">PyX4M300</text>
</a>
</g>
</g>
<!-- Node164&#45;&gt;Node182 -->
<g id="edge18" class="edge"><title>Node164&#45;&gt;Node182</title>
<path fill="none" stroke="midnightblue" d="M116.386,-483.549C129.356,-428.744 168.988,-293.766 256.58,-226.5 261.664,-222.595 267.254,-219.299 273.134,-216.518"/>
<polygon fill="midnightblue" stroke="midnightblue" points="112.951,-482.869 114.141,-493.397 119.776,-484.425 112.951,-482.869"/>
</g>
<!-- Node183 -->
<g id="node20" class="node"><title>Node183</title>
<g id="a_node20"><a xlink:href="classpymoduleconnector_1_1moduleconnectorwrapper_1_1_py_x_e_p.xhtml" target="_top" xlink:title="C++ includes: PyXEP.hpp. ">
<polygon fill="white" stroke="black" points="256.58,-141.5 256.58,-169.5 477.16,-169.5 477.16,-141.5 256.58,-141.5"/>
<text text-anchor="start" x="264.58" y="-157.5" font-family="Helvetica,sans-Serif" font-size="10.00">pymoduleconnector.moduleconnectorwrapper.</text>
<text text-anchor="middle" x="366.87" y="-147.5" font-family="Helvetica,sans-Serif" font-size="10.00">PyXEP</text>
</a>
</g>
</g>
<!-- Node164&#45;&gt;Node183 -->
<g id="edge19" class="edge"><title>Node164&#45;&gt;Node183</title>
<path fill="none" stroke="midnightblue" d="M114.553,-483.032C124.097,-421.629 157.822,-260.18 256.58,-179.5 261.319,-175.629 266.546,-172.347 272.07,-169.567"/>
<polygon fill="midnightblue" stroke="midnightblue" points="111.036,-482.888 113.042,-493.291 117.962,-483.908 111.036,-482.888"/>
</g>
<!-- Node184 -->
<g id="node21" class="node"><title>Node184</title>
<g id="a_node21"><a xlink:href="classpymoduleconnector_1_1moduleconnectorwrapper_1_1_recording_options.xhtml" target="_top" xlink:title="The RecordingOptions class allows specifying options for recording. ">
<polygon fill="white" stroke="black" points="256.58,-94.5 256.58,-122.5 477.16,-122.5 477.16,-94.5 256.58,-94.5"/>
<text text-anchor="start" x="264.58" y="-110.5" font-family="Helvetica,sans-Serif" font-size="10.00">pymoduleconnector.moduleconnectorwrapper.</text>
<text text-anchor="middle" x="366.87" y="-100.5" font-family="Helvetica,sans-Serif" font-size="10.00">RecordingOptions</text>
</a>
</g>
</g>
<!-- Node164&#45;&gt;Node184 -->
<g id="edge20" class="edge"><title>Node164&#45;&gt;Node184</title>
<path fill="none" stroke="midnightblue" d="M113.034,-483.247C119.216,-416.224 146.109,-227.197 256.58,-132.5 261.078,-128.644 266.056,-125.366 271.335,-122.583"/>
<polygon fill="midnightblue" stroke="midnightblue" points="109.541,-483.009 112.183,-493.269 116.516,-483.601 109.541,-483.009"/>
</g>
<!-- Node185 -->
<g id="node22" class="node"><title>Node185</title>
<g id="a_node22"><a xlink:href="classpymoduleconnector_1_1moduleconnectorwrapper_1_1_respiration_data.xhtml" target="_top" xlink:title="Represents the respiration status data coming from the module. ">
<polygon fill="white" stroke="black" points="256.58,-47.5 256.58,-75.5 477.16,-75.5 477.16,-47.5 256.58,-47.5"/>
<text text-anchor="start" x="264.58" y="-63.5" font-family="Helvetica,sans-Serif" font-size="10.00">pymoduleconnector.moduleconnectorwrapper.</text>
<text text-anchor="middle" x="366.87" y="-53.5" font-family="Helvetica,sans-Serif" font-size="10.00">RespirationData</text>
</a>
</g>
</g>
<!-- Node164&#45;&gt;Node185 -->
<g id="edge21" class="edge"><title>Node164&#45;&gt;Node185</title>
<path fill="none" stroke="midnightblue" d="M111.875,-482.763C115.011,-409.851 134.657,-194.106 256.58,-85.5 260.932,-81.6236 265.764,-78.3262 270.906,-75.5252"/>
<polygon fill="midnightblue" stroke="midnightblue" points="108.362,-483.082 111.501,-493.201 115.357,-483.333 108.362,-483.082"/>
</g>
<!-- Node186 -->
<g id="node23" class="node"><title>Node186</title>
<g id="a_node23"><a xlink:href="classpymoduleconnector_1_1moduleconnectorwrapper_1_1_sleep_data.xhtml" target="_top" xlink:title="Represents the sleep status data coming from the module. ">
<polygon fill="white" stroke="black" points="256.58,-0.5 256.58,-28.5 477.16,-28.5 477.16,-0.5 256.58,-0.5"/>
<text text-anchor="start" x="264.58" y="-16.5" font-family="Helvetica,sans-Serif" font-size="10.00">pymoduleconnector.moduleconnectorwrapper.</text>
<text text-anchor="middle" x="366.87" y="-6.5" font-family="Helvetica,sans-Serif" font-size="10.00">SleepData</text>
</a>
</g>
</g>
<!-- Node164&#45;&gt;Node186 -->
<g id="edge22" class="edge"><title>Node164&#45;&gt;Node186</title>
<path fill="none" stroke="midnightblue" d="M110.895,-483.196C111.037,-405.594 122.589,-161.653 256.58,-38.5 260.799,-34.622 265.497,-31.3191 270.508,-28.5102"/>
<polygon fill="midnightblue" stroke="midnightblue" points="107.396,-483.421 110.943,-493.404 114.396,-483.388 107.396,-483.421"/>
</g>
</g>
</svg>
